<?xml version="1.0" encoding="UTF-8" standalone="no"?>
<!DOCTYPE svg PUBLIC "-//W3C//DTD SVG 1.1//EN" "http://www.w3.org/Graphics/SVG/1.1/DTD/svg11.dtd">
<svg width="100%" height="100%" viewBox="0 0 200 200" version="1.1" xmlns="http://www.w3.org/2000/svg" xmlns:xlink="http://www.w3.org/1999/xlink" xml:space="preserve" xmlns:serif="http://www.serif.com/" style="fill-rule:evenodd;clip-rule:evenodd;stroke-linejoin:round;stroke-miterlimit:2;">
    <path d="M100.085,182.366C95.463,182.369 90.908,181.265 86.8,179.148C60.703,165.674 0,128.415 0,73.595C0,40.268 25.271,13.152 56.332,13.152C73.397,13.152 89.402,21.488 100,35.428C110.598,21.488 126.603,13.152 143.668,13.152C174.729,13.152 200,40.268 200,73.597C200,129.082 139.303,165.952 113.206,179.229C109.141,181.294 104.644,182.369 100.085,182.366ZM56.332,25.46C32.057,25.46 12.308,47.054 12.308,73.595C12.308,94.154 22.628,114.418 42.98,133.826C60.58,150.611 81.528,162.575 92.448,168.212C97.202,170.662 102.856,170.68 107.626,168.26C118.54,162.708 139.474,150.894 157.055,134.157C177.385,114.802 187.692,94.426 187.692,73.595C187.692,47.054 167.943,25.458 143.668,25.458C127.937,25.458 113.292,34.754 105.451,49.72C104.39,51.744 102.285,53.017 100,53.017C97.715,53.017 95.61,51.744 94.549,49.72C86.706,34.755 72.062,25.46 56.332,25.46Z" style="fill:rgb(191,191,190);fill-rule:nonzero;"/>
</svg>
